<svg xmlns="http://www.w3.org/2000/svg" viewBox="0 0 143.61 143.61">
    <g id="Layer_2" data-name="Layer 2">
        <g id="Layer_1-2" data-name="Layer 1">
            <circle cx="71.81" cy="71.81" r="71.81" style="fill:#b28716" />
            <text transform="translate(96.64 29.94)"
                style="fill:#fff;font-size:7.97px;font-family:Roboto-Bold,Roboto;font-weight:700;letter-spacing:.03em">
                TM</text>
            <path class="cls-3" fill="#fff"
                d="M77.34 35.47a7.74 7.74 0 0 0 13.27-5.53 7.75 7.75 0 1 0-15.49 0 7.48 7.48 0 0 0 2.22 5.53ZM61 121.39a20.79 20.79 0 0 1-11.61-3.32 23.23 23.23 0 0 1-8.08-9.95 39 39 0 0 1-3-16q0-14.16 6.52-21.68t17.81-7.63A18.75 18.75 0 0 1 72 65h.1a2.34 2.34 0 0 0 3.3-2.1V47.83a2.83 2.83 0 0 0-2.15-2.75l-4-1a.73.73 0 0 1-.54-.69V43a.71.71 0 0 1 .71-.71h13.72a10 10 0 0 1 10 10v61.91a2.83 2.83 0 0 0 2.11 2.8l4 1a.71.71 0 0 1 .54.68v.4a.71.71 0 0 1-.71.71h-9.3q-6.63 0-10.29-4.09c-.17-.19-.33-.38-.49-.58a2.85 2.85 0 0 0-4.39 0c-.38.45-.78.89-1.2 1.31A16.82 16.82 0 0 1 61 121.39Zm4.43-3.85q4.08 0 7.41-4.42a27 27 0 0 0 2.25-3.83 2.87 2.87 0 0 0 .31-1.29V71.75a2.88 2.88 0 0 0-1-2.14c-.51-.46-1-.89-1.57-1.29a9.72 9.72 0 0 0-5.76-2.21q-4.75 0-7.41 5.53T57.15 92.1q0 14.27 2.32 19.91c1.62 3.69 3.62 5.53 5.98 5.53Z" />
        </g>
    </g>
</svg>